<mxfile host="app.diagrams.net" modified="2021-04-27T09:31:50.392Z" agent="5.0 (Windows NT 10.0; Win64; x64) AppleWebKit/537.36 (KHTML, like Gecko) Chrome/90.0.4430.85 Safari/537.36" etag="twKCtRQbiaDbdVzBAc-q" version="14.6.6" type="github">
  <diagram id="mjDdor2wvR_tsNoPI5ix" name="Page-1">
    <mxGraphModel dx="1038" dy="580" grid="1" gridSize="10" guides="1" tooltips="1" connect="1" arrows="1" fold="1" page="1" pageScale="1" pageWidth="850" pageHeight="1100" math="0" shadow="0">
      <root>
        <mxCell id="0" />
        <mxCell id="1" parent="0" />
        <mxCell id="keZ8HktV4vfYoSps4l7r-1" value="&lt;font&gt;&lt;u style=&quot;font-weight: bold&quot;&gt;&lt;font style=&quot;font-size: 19px&quot;&gt;Cargo&lt;/font&gt;&lt;/u&gt;&lt;br&gt;&lt;br&gt;&lt;span style=&quot;font-size: 14px&quot;&gt;Maximum weight capacity &lt;/span&gt;&lt;i style=&quot;font-size: 14px&quot;&gt;&lt;b&gt;W&lt;/b&gt;&lt;/i&gt;&lt;br&gt;&lt;/font&gt;" style="shape=cube;whiteSpace=wrap;html=1;boundedLbl=1;backgroundOutline=1;darkOpacity=0.05;darkOpacity2=0.1;size=40;" vertex="1" parent="1">
          <mxGeometry x="390" y="210" width="360" height="190" as="geometry" />
        </mxCell>
        <mxCell id="keZ8HktV4vfYoSps4l7r-2" value="&lt;font style=&quot;font-size: 13px&quot;&gt;&lt;u style=&quot;font-weight: bold&quot;&gt;Item 1&lt;/u&gt;&lt;br&gt;&lt;br&gt;Weight &lt;b&gt;&lt;i&gt;w&lt;/i&gt;&lt;/b&gt;&lt;sub&gt;&lt;b&gt;&lt;i&gt;1&lt;/i&gt;&lt;/b&gt;&lt;br style=&quot;font-size: 13px&quot;&gt;&lt;/sub&gt;Value &lt;b&gt;&lt;i&gt;v&lt;sub&gt;1&lt;/sub&gt;&lt;/i&gt;&lt;/b&gt;&lt;br&gt;&lt;/font&gt;" style="shape=cube;whiteSpace=wrap;html=1;boundedLbl=1;backgroundOutline=1;darkOpacity=0.05;darkOpacity2=0.1;" vertex="1" parent="1">
          <mxGeometry x="50" y="200" width="140" height="100" as="geometry" />
        </mxCell>
        <mxCell id="keZ8HktV4vfYoSps4l7r-4" value="&lt;font&gt;&lt;u style=&quot;font-size: 13px ; font-weight: bold&quot;&gt;Item 2&lt;/u&gt;&lt;br&gt;&lt;br&gt;&lt;span style=&quot;font-size: 13px&quot;&gt;Weight &lt;/span&gt;&lt;b style=&quot;font-size: 13px&quot;&gt;&lt;i&gt;w&lt;sub&gt;2&lt;/sub&gt;&lt;/i&gt;&lt;/b&gt;&lt;sub style=&quot;font-size: 13px&quot;&gt;&lt;br style=&quot;font-size: 13px&quot;&gt;&lt;/sub&gt;&lt;span style=&quot;font-size: 13px&quot;&gt;Value &lt;/span&gt;&lt;b&gt;&lt;i&gt;&lt;span style=&quot;font-size: 13px&quot;&gt;v&lt;/span&gt;&lt;span style=&quot;font-size: 10.8333px&quot;&gt;&lt;sub&gt;2&lt;/sub&gt;&lt;/span&gt;&lt;/i&gt;&lt;/b&gt;&lt;br&gt;&lt;/font&gt;" style="shape=cube;whiteSpace=wrap;html=1;boundedLbl=1;backgroundOutline=1;darkOpacity=0.05;darkOpacity2=0.1;" vertex="1" parent="1">
          <mxGeometry x="210" y="200" width="140" height="100" as="geometry" />
        </mxCell>
        <mxCell id="keZ8HktV4vfYoSps4l7r-5" value="&lt;font&gt;&lt;u style=&quot;font-size: 13px ; font-weight: bold&quot;&gt;Item 3&lt;/u&gt;&lt;br&gt;&lt;br&gt;&lt;span style=&quot;font-size: 13px&quot;&gt;Weight &lt;/span&gt;&lt;b style=&quot;font-size: 13px&quot;&gt;&lt;i&gt;w&lt;sub&gt;3&lt;/sub&gt;&lt;/i&gt;&lt;/b&gt;&lt;sub style=&quot;font-size: 13px&quot;&gt;&lt;br style=&quot;font-size: 13px&quot;&gt;&lt;/sub&gt;&lt;span style=&quot;font-size: 13px&quot;&gt;Value &lt;/span&gt;&lt;b&gt;&lt;i&gt;&lt;span style=&quot;font-size: 13px&quot;&gt;v&lt;/span&gt;&lt;span style=&quot;font-size: 10.8333px&quot;&gt;&lt;sub&gt;3&lt;/sub&gt;&lt;/span&gt;&lt;/i&gt;&lt;/b&gt;&lt;br&gt;&lt;/font&gt;" style="shape=cube;whiteSpace=wrap;html=1;boundedLbl=1;backgroundOutline=1;darkOpacity=0.05;darkOpacity2=0.1;" vertex="1" parent="1">
          <mxGeometry x="50" y="330" width="140" height="100" as="geometry" />
        </mxCell>
        <mxCell id="keZ8HktV4vfYoSps4l7r-6" value="&lt;font&gt;&lt;u style=&quot;font-size: 13px ; font-weight: bold&quot;&gt;Item 4&lt;/u&gt;&lt;br&gt;&lt;br&gt;&lt;span style=&quot;font-size: 13px&quot;&gt;Weight &lt;/span&gt;&lt;b style=&quot;font-size: 13px&quot;&gt;&lt;i&gt;w&lt;sub&gt;4&lt;/sub&gt;&lt;/i&gt;&lt;/b&gt;&lt;sub style=&quot;font-size: 13px&quot;&gt;&lt;br style=&quot;font-size: 13px&quot;&gt;&lt;/sub&gt;&lt;span style=&quot;font-size: 13px&quot;&gt;Value &lt;/span&gt;&lt;b&gt;&lt;i&gt;&lt;span style=&quot;font-size: 13px&quot;&gt;v&lt;/span&gt;&lt;span style=&quot;font-size: 10.8333px&quot;&gt;&lt;sub&gt;4&lt;/sub&gt;&lt;/span&gt;&lt;/i&gt;&lt;/b&gt;&lt;br&gt;&lt;/font&gt;" style="shape=cube;whiteSpace=wrap;html=1;boundedLbl=1;backgroundOutline=1;darkOpacity=0.05;darkOpacity2=0.1;" vertex="1" parent="1">
          <mxGeometry x="220" y="330" width="140" height="100" as="geometry" />
        </mxCell>
      </root>
    </mxGraphModel>
  </diagram>
</mxfile>
